PathFileType	4	(X/Y/Z)	C:/Users/opensim2020/Desktop/walking_exp_matlab/subject02_walking15_straight_02.trc	
DataRate	CameraRate	NumFrames	NumMarkers	Units	OrigDataRate	OrigDataStartFrame	OrigNumFrames	
100.00	100.00	5	42	mm	100.00	923	142	
Frame#	Time	LFHD			RFHD			LBHD			RBHD			C7			T10			CLAV			STRN			RBAK			LSHO			LUPA			LELB			LFRM			LWRA			LWRB			LFIN			RSHO			RUPA			RELB			RFRM			RWRA			RWRB			RFIN			LASI			RASI			LPSI			RPSI			LTHI			LKNE			LTIB			LANK			LHEE			LTOE			RTHI			RKNE			RTIB			RANK			RHEE			RTOE			*39			*40			*41			
		X1	Y1	Z1	X2	Y2	Z2	X3	Y3	Z3	X4	Y4	Z4	X5	Y5	Z5	X6	Y6	Z6	X7	Y7	Z7	X8	Y8	Z8	X9	Y9	Z9	X10	Y10	Z10	X11	Y11	Z11	X12	Y12	Z12	X13	Y13	Z13	X14	Y14	Z14	X15	Y15	Z15	X16	Y16	Z16	X17	Y17	Z17	X18	Y18	Z18	X19	Y19	Z19	X20	Y20	Z20	X21	Y21	Z21	X22	Y22	Z22	X23	Y23	Z23	X24	Y24	Z24	X25	Y25	Z25	X26	Y26	Z26	X27	Y27	Z27	X28	Y28	Z28	X29	Y29	Z29	X30	Y30	Z30	X31	Y31	Z31	X32	Y32	Z32	X33	Y33	Z33	X34	Y34	Z34	X35	Y35	Z35	X36	Y36	Z36	X37	Y37	Z37	X38	Y38	Z38	X39	Y39	Z39	X40	Y40	Z40	X41	Y41	Z41	X42	Y42	Z42	

54	0.530	-967.99200	246.73454	1725.15515	-1111.65320	249.24141	1709.82776	-957.97809	371.48529	1640.93884	-1100.19604	385.91205	1623.20654	-1025.88306	420.58905	1498.84521	-1043.30493	459.48303	1224.06775	-1019.83270	274.14780	1439.20581	-1038.99109	214.12936	1270.60718	-1094.44678	471.94849	1325.58984	-849.36829	343.27295	1472.94922	-761.88794	405.93277	1289.53845	-741.04449	454.20190	1166.56689	-702.16370	509.30838	1057.71033	-687.89343	520.37671	914.78723	-673.42883	562.24677	950.02704	-655.38477	587.33954	890.45587	-1209.60388	354.67758	1479.83850	-1315.05164	343.93948	1301.19702	-1360.65845	276.60806	1173.80957	-1372.85498	174.80290	1104.68066	-1348.11841	56.15635	1051.28442	-1378.98669	82.76964	1011.95972	-1384.50525	12.39334	1007.30359	-928.98639	211.18710	973.90790	-1179.31091	231.66791	946.86670	-991.45844	428.94727	1014.54236	-1109.50977	438.07153	1008.43433	-865.07977	200.36942	674.32465	-908.15015	165.17485	479.65833	-909.02869	192.81845	288.38187	-950.30463	174.09950	71.21548	-1004.17212	208.46788	44.22874	-937.74524	18.21903	35.36380	-1258.38428	383.49698	660.41620	-1251.30481	432.23169	460.54544	-1249.75525	582.70001	349.06589	-1217.79651	718.47906	214.38608	-1154.19324	765.24225	208.06380	-1215.61975	685.77313	49.26435	-1054.12915	355.27484	1784.92114	-3357.28052	2846.01074	1034.50391			 
55	0.540	-966.99243	232.71101	1726.75793	-1110.39087	235.53517	1711.54492	-956.80969	357.59406	1642.68347	-1098.32031	371.97586	1624.58838	-1024.81409	406.96906	1500.21008	-1041.88330	445.21451	1225.60352	-1018.80029	260.14038	1440.98401	-1038.09595	199.77138	1272.43945	-1093.27930	458.19836	1327.44226	-848.42926	329.39340	1474.78320	-760.27655	389.88409	1290.73059	-739.96759	437.13864	1166.58716	-701.66302	489.73792	1056.19031	-689.34216	497.85889	913.24042	-673.76245	540.58514	946.76184	-657.24475	563.32690	885.18207	-1208.37061	340.82071	1481.17566	-1313.08997	332.53018	1301.74646	-1358.17285	266.98535	1173.45337	-1370.73657	166.29826	1102.75769	-1346.34033	48.50958	1047.37573	-1377.01428	75.89154	1008.47717	-1382.90613	5.77196	1002.50684	-926.64880	197.16774	976.33429	-1175.82446	216.50513	947.48004	-990.80121	414.54068	1015.58832	-1109.02881	423.36029	1009.23291	-864.85529	189.30266	673.12207	-907.50909	156.93425	479.25693	-909.97113	189.11470	288.56372	-950.46509	173.58519	71.15707	-1004.50714	208.63127	44.41068	-937.93445	17.81207	34.99891	-1257.70093	361.84311	657.93866	-1252.81799	405.75232	458.33252	-1250.71533	557.76068	350.51443	-1215.41992	697.96283	221.72284	-1151.06946	744.02740	218.56490	-1214.61304	671.89941	55.68753	-1052.79346	341.58142	1786.58264	-3360.36133	2845.29541	1034.33411			 
56	0.550	-965.92529	218.95793	1728.62842	-1109.09595	221.86877	1713.60022	-955.82532	343.59308	1644.36865	-1097.65808	358.44229	1626.86230	-1023.79602	393.35513	1501.87878	-1040.49243	431.02878	1227.30237	-1017.96985	246.28438	1443.03345	-1037.46997	185.86075	1274.57434	-1092.39795	444.70908	1329.61682	-847.61469	315.39349	1476.68726	-758.79205	373.92630	1291.92749	-739.07196	419.43787	1166.41150	-701.59283	469.49774	1054.22192	-691.19763	473.98346	911.38336	-674.23547	517.56921	943.16174	-659.16052	537.58868	880.04999	-1207.48108	327.27463	1482.75549	-1311.79260	321.28409	1302.64856	-1356.76770	257.57397	1173.75000	-1368.74597	158.22903	1100.65112	-1344.54150	41.50475	1042.83362	-1375.19214	69.81055	1004.53442	-1381.33704	-0.04879	997.00409	-924.39294	183.63841	978.88464	-1172.96912	201.73906	948.50232	-990.19275	400.69571	1016.69220	-1108.14819	409.23993	1010.40594	-864.50708	179.39479	673.87579	-907.00299	150.22981	478.76331	-910.93030	186.83154	288.56110	-950.76715	173.57060	71.09618	-1004.58740	208.75029	44.45216	-938.12134	17.69391	34.76578	-1257.26733	340.08548	656.36017	-1254.13330	379.19080	456.81937	-1250.68945	532.51477	352.50256	-1211.59790	675.71759	228.70560	-1145.56726	720.26685	227.01450	-1216.47522	654.41663	62.90675	-1051.60266	327.92258	1788.57007	-3357.43823	2846.01099	1034.32861			 
57	0.560	-964.79010	205.21840	1730.54602	-1108.05884	208.09666	1715.77881	-954.72174	329.90359	1646.50500	-1096.69531	344.70828	1629.18079	-1022.79810	379.59433	1503.91858	-1039.16663	417.06558	1229.25037	-1017.27350	232.61768	1445.20081	-1037.11975	173.21848	1276.53076	-1091.59216	431.30804	1332.01172	-846.63757	301.50424	1478.86511	-757.66229	357.48657	1293.06116	-737.98547	401.49896	1166.44641	-701.76385	448.31198	1052.07031	-693.34912	448.94675	909.54114	-675.15485	493.38669	939.47150	-661.19916	510.93863	875.06738	-1206.73901	313.92419	1484.45935	-1309.88379	310.10867	1303.45593	-1354.02417	248.12012	1173.52710	-1366.84827	150.51598	1098.43079	-1342.81567	35.21405	1037.72766	-1373.41699	64.45550	1000.28528	-1379.62573	-5.14043	990.77228	-922.39252	170.71593	981.32196	-1170.79419	187.58929	950.03601	-989.49689	387.23502	1018.19366	-1106.98230	395.81714	1012.09454	-864.13116	169.23468	675.52332	-906.37048	144.62238	478.44565	-911.50903	185.41338	288.56308	-951.01227	173.66000	71.19720	-1004.59351	209.17216	44.45747	-938.25916	17.64478	34.62992	-1256.92944	318.69800	656.01227	-1255.05750	352.66565	456.44952	-1249.45215	506.99878	355.27057	-1206.21155	652.56372	235.08774	-1138.22949	695.52258	232.00624	-1217.94397	633.70911	69.77138	-1050.28955	314.20840	1790.44373	-3360.38013	2845.31934	1034.25500			 
58	0.570	-963.91235	191.31984	1732.68579	-1107.11829	194.32703	1718.07666	-953.83948	316.27875	1648.47766	-1097.20984	331.17606	1631.74194	-1021.83270	365.88226	1506.31714	-1038.00928	403.30286	1231.41663	-1016.63428	219.05711	1447.51782	-1036.72913	159.60794	1278.82495	-1090.65698	417.97092	1334.49304	-845.76465	287.42267	1481.13330	-756.60944	340.87399	1294.26794	-736.87128	382.96271	1166.36548	-701.66565	427.02173	1050.28027	-696.14276	422.73816	907.41315	-676.22821	467.87341	935.74146	-663.08972	483.01035	870.48706	-1206.18518	300.73120	1486.16064	-1309.05225	299.10040	1304.84192	-1351.97791	238.84396	1173.75171	-1364.97339	143.18242	1096.11719	-1341.03430	29.41297	1032.45081	-1371.76428	59.77411	995.78668	-1377.88635	-9.47791	984.05811	-920.47772	157.84924	983.62256	-1169.32495	173.92241	952.26587	-988.64069	374.15863	1020.21539	-1105.60364	383.09189	1014.47632	-863.82001	158.75995	677.13635	-905.71924	139.54645	478.58615	-910.87610	184.13872	288.91898	-951.15948	173.71117	71.23795	-1004.41016	209.43140	44.55086	-938.16565	17.70569	34.53181	-1256.49426	297.65274	656.87225	-1255.75220	326.12982	457.30566	-1246.87866	481.05429	358.36142	-1199.96326	627.94489	240.83328	-1130.83582	669.86487	235.21492	-1219.06628	610.14587	76.50299	-1049.06750	300.37579	1792.56592	-3357.43555	2845.97217	1034.50623			 
